# xmcd
#
# Track frame offsets: 
#        150
#        17646
#        40713
#        57592
#        72575
#        92610
#        111887
#        128451
#        145393
#        165358
#
# Disc length: 2458 seconds
#
# Revision: 0
# Processed by: cddbd v1.5.2PL0 Copyright (c) Steve Scherf et al.
# Submitted via: ExactAudioCopy v0.95b4
#
DISCID=8209980a
DTITLE=Etta James - Live and Ready
DYEAR=2005
DGENRE=Blues
TTITLE0=Can't Turn You Loose
TTITLE1=Stormy Monday
TTITLE2=Respect Yourself
TTITLE3=Rock Me Baby
TTITLE4=Drown In My Own Tears
TTITLE5=W.O.M.A.N.
TTITLE6=Summer Heat
TTITLE7=Dust My Broom
TTITLE8=I'd Rather Go Blind
TTITLE9=Baby What Do You Want Me To Do
EXTD=
EXTT0=
EXTT1=
EXTT2=
EXTT3=
EXTT4=
EXTT5=
EXTT6=
EXTT7=
EXTT8=
EXTT9=
PLAYORDER=
